<svg viewBox="0 0 128 128" xml:space="preserve" xmlns="http://www.w3.org/2000/svg"><circle cx="64" cy="64" fill="#8b0000" r="64" class="fill-4b5f83"></circle><path d="M77.5 94h-27c-2.2 0-4-1.8-4-4V38c0-2.2 1.8-4 4-4h27c2.2 0 4 1.8 4 4v52c0 2.2-1.8 4-4 4z" fill="#FFFFFF" class="fill-ffffff"></path><path fill="#8b0000" d="M49.5 43h29v42h-29z" class="fill-22a7f0"></path><circle cx="63.9" cy="89.8" fill="#8b0000" r="2" class="fill-b3b3b3"></circle><path d="M68 39.5h-8c-.5 0-1-.4-1-1 0-.5.5-1 1-1h8c.6 0 1 .5 1 1 0 .6-.4 1-1 1z" fill="#8b0000" class="fill-b3b3b3"></path></svg>