<svg viewBox="0 0 128 128" xml:space="preserve" xmlns="http://www.w3.org/2000/svg"><circle cx="64" cy="64" fill="#ffffff" r="64" class="fill-4b5f83"></circle><path d="M94 64c0-16.6-13.4-30-30-30S34 47.4 34 64s13.4 30 30 30c7 0 13.5-2.4 18.6-6.5.2 0 .4-.1.6-.1 0-.1-.1-.2-.1-.3C89.8 81.6 94 73.3 94 64zm-4.1-2H74c-.1-3.6-.4-7.1-.8-10.2 3.3-1.7 6-4.3 7.9-7.4 5 4.3 8.3 10.6 8.8 17.6zM64 90c-2 0-3.9-4.4-4.9-11.2 1.6-.5 3.2-.8 4.9-.8 1.7 0 3.4.3 4.9.8C67.9 85.6 66 90 64 90zm8.4-9.6c2.3 1.4 4.1 3.3 5.5 5.6-2.6 1.6-5.5 2.8-8.6 3.5 1.2-2.4 2.3-5.5 3.1-9.1zm-13.7 9.1c-3.1-.6-6-1.8-8.6-3.5 1.3-2.3 3.2-4.2 5.5-5.6.8 3.6 1.9 6.7 3.1 9.1zM64.4 74c-2 0-4 .3-5.8.9-.3-2.7-.5-5.7-.5-8.9h12c-.1 3.1-.2 6-.5 8.7-1.8-.5-3.4-.7-5.2-.7zM58 62c.1-3.1.2-6.1.5-8.8 1.7.5 3.6.8 5.5.8s3.7-.3 5.5-.8c.3 2.7.5 5.7.5 8.8H58zm6-24c2 0 3.8 4.4 4.9 11.1-1.7.6-3.4.9-5.3.9-1.6 0-3.1-.2-4.6-.7 1.1-6.8 2.9-11.3 5-11.3zm-8.4 9.8c-2.3-1.4-4.3-3.3-5.7-5.7 2.7-1.7 5.6-3 8.8-3.6-1.2 2.4-2.3 5.6-3.1 9.3zm13.7-9.3c3 .6 5.7 1.7 8.2 3.3-1.3 2.3-3.1 4.2-5.2 5.6-.8-3.6-1.8-6.6-3-8.9zm-22.4 5.9c1.9 3.1 4.6 5.7 7.9 7.4-.5 3.2-.8 6.6-.8 10.2H38.1c.5-7 3.8-13.3 8.8-17.6zM38.1 66H54c.1 3.7.4 7.2.9 10.4-3.2 1.7-5.8 4.3-7.7 7.4-5.1-4.3-8.6-10.7-9.1-17.8zm35.1 10c.5-3.1.7-6.5.8-10h15.9c-.5 6.9-3.7 13-8.6 17.4-2-3.2-4.8-5.7-8.1-7.4z" fill="#8b0000" class="fill-ffffff"></path></svg>