<svg viewBox="0 0 128 128" xml:space="preserve" xmlns="http://www.w3.org/2000/svg"><circle cx="64" cy="64" fill="#ffffff" r="64" class="fill-4b5f83"></circle><path d="m84.5 76.5 5.1 1.9L93 69l-5.2-2c.1-1 .2-2 .2-3 0-1.2-.1-2.4-.3-3.6l5.1-1.9-3.4-9.4-5.2 1.9c-1.2-1.9-2.7-3.6-4.3-5l2.7-4.7-8.7-5-2.8 4.8c-2.1-.6-4.3-1-6.5-1.1l-1-5.4-9.8 1.7 1 5.5c-2.1.9-4 2-5.7 3.4l-4.2-3.5-6.4 7.7 4.3 3.5c-1 1.9-1.8 4.2-2.2 6.2H35v10h5.6c.5 2 1.3 4.4 2.3 6.3L38.7 79l6.4 7.7 4.2-3.6c1.8 1.4 3.7 2.5 5.8 3.3l-.9 5.3 9.8 1.7 1-5.4c2.3-.1 4.5-.5 6.6-1.2l2.7 4.7 8.7-5-2.8-4.8c1.7-1.6 3.1-3.3 4.3-5.2zM48 64c0-8.8 7.2-16 16-16s16 7.2 16 16-7.2 16-16 16-16-7.2-16-16z" fill="#8b0000" class="fill-e6e6e6"></path><circle cx="64" cy="64" fill="#873231" r="8" class="fill-22313f"></circle></svg>