<svg data-name="Layer 1" viewBox="0 0 128 128" xmlns="http://www.w3.org/2000/svg"><ellipse cx="64" cy="63.82" rx="60" ry="60.18" fill="#ffffff" class="fill-ff7d00"></ellipse><path d="M29.19 32.88h69.62v64.19H29.19z" fill="#8b0000" class="fill-ffffff"></path><path d="M33.9 49h60.19v43.33H33.9z" fill="#ffffff" class="fill-ff7d00"></path><path d="M52.42 52.64h10.16v6.93H52.42zM65.42 52.64h10.16v6.93H65.42zM78.42 52.64h10.16v6.93H78.42zM39.42 62.34h10.16v6.93H39.42zM52.42 62.34h10.16v6.93H52.42zM65.42 62.34h10.16v6.93H65.42zM78.42 62.34h10.16v6.93H78.42zM39.42 72.05h10.16v6.93H39.42zM52.42 72.05h10.16v6.93H52.42zM65.42 72.05h10.16v6.93H65.42zM78.42 72.05h10.16v6.93H78.42zM39.42 81.75h10.16v6.93H39.42zM52.42 81.75h10.16v6.93H52.42zM65.42 81.75h10.16v6.93H65.42z" fill="#8b0000" class="fill-ffffff"></path><path d="M33.9 37.3H64v7.78H33.9z" fill="#ffffff" class="fill-ff7d00"></path><path d="M36.88 26.46h5.08v6.93h-5.08zM89.02 26.46h5.08v6.93h-5.08z" fill="#8b0000" class="fill-ffffff"></path></svg>