<svg viewBox="0 0 512 512" xmlns="http://www.w3.org/2000/svg" xmlns:xlink="http://www.w3.org/1999/xlink"><defs><path id="a" d="M424.396 426.089V1.867H1.098V426.09h423.298z"></path><path id="c" d="M84.025 86.87H0V2.66h84.025v84.21z"></path></defs><g fill="none" fill-rule="evenodd"><path d="M415.717 371.03c-83.62 83.8-210.834 92.184-284.134 18.725-73.3-73.46-64.935-200.942 18.691-284.742 83.62-83.807 210.827-92.19 284.127-18.732 73.301 73.46 64.935 200.949-18.684 284.749" fill="#8b0000" class="fill-d28f52"></path><path d="M434.404 86.284c-73.3-73.46-200.508-65.075-284.134 18.725-49.21 49.323-72.327 113.764-68.103 173.428l160.498 160.846c59.536 4.234 123.838-18.934 173.055-68.25 83.619-83.807 91.985-211.29 18.684-284.75" fill="#d92525" class="fill-f05253"></path><path d="M477.323 160.096c.758 56.42-22.416 115.95-68.554 162.19-64.56 64.698-155.078 84.398-226.732 56.23l1.348 1.358-28.934 28.997c74.808 51.976 185.784 37.798 261.266-37.84 59.758-59.895 81.062-142.086 61.606-210.935" fill="#8b0000" opacity=".3" class="fill-010202"></path><g transform="translate(70.246 24.044)"><mask fill="#ffffff" id="b" class="fill-ffffff"><use xlink:href="#a"></use></mask><path d="M239.225 22.701c-52.857 0-108.502 22.228-151.833 65.653C7.977 167.948-.41 289.06 68.707 358.326c69.11 69.267 189.974 60.862 269.39-18.725 79.422-79.6 87.809-200.705 18.691-269.979-31.414-31.475-73.53-46.92-117.563-46.92m-52.969 403.387c-49.404 0-96.828-17.45-132.287-52.993-77.247-77.414-68.86-211.777 18.685-299.511C160.192-14.15 294.272-22.57 371.526 54.852c77.247 77.415 68.86 211.777-18.685 299.519-47.361 47.464-108.349 71.718-166.585 71.718" fill="#8b0000" mask="url(#b)" class="fill-2e2e30"></path></g><path d="M247.24 429.098c58.138 2.931 116.534-20.787 161.11-65.451 79.414-79.601 87.801-200.712 18.684-269.979C357.91 24.394 237.053 32.806 157.638 112.4c-44.582 44.679-68.242 103.312-65.303 161.451L247.24 429.098Zm9.658 21.134c-4.989 0-9.978-.174-14.974-.529a10.364 10.364 0 0 1-6.629-3.036L74.804 285.822a10.406 10.406 0 0 1-3.03-6.644C67.14 213.741 93.064 147.573 142.9 97.623 230.438 9.896 364.518 1.477 441.772 78.898c77.247 77.415 68.86 211.777-18.685 299.519-46.027 46.127-105.882 71.815-166.189 71.815Z" fill="#8b0000" class="fill-2e2e30"></path><path d="M75.362 488.134c-12.34 12.367-32.36 12.367-44.7 0-12.348-12.368-12.348-32.43 0-44.797 12.34-12.374 32.36-12.374 44.7 0 12.34 12.367 12.34 32.43 0 44.797" fill="#8b0000" class="fill-72553f"></path><g transform="translate(11 420.97)"><mask fill="#ffffff" id="d" class="fill-ffffff"><use xlink:href="#c"></use></mask><path d="M42.012 23.545c-5.427 0-10.854 2.068-14.981 6.211-8.262 8.273-8.262 21.748 0 30.02 8.261 8.287 21.7 8.287 29.962 0 8.262-8.272 8.262-21.747 0-30.02-4.128-4.143-9.554-6.211-14.981-6.211m0 63.327c-10.764 0-21.534-4.109-29.72-12.326-16.391-16.42-16.391-43.14 0-59.56 16.379-16.434 43.061-16.434 59.439 0 16.391 16.42 16.391 43.14 0 59.56-8.186 8.217-18.956 12.326-29.72 12.326" fill="#8b0000" mask="url(#d)" class="fill-2e2e30"></path></g><path fill="#8b0000" d="m77.08 486.41-44.7-44.797 106.307-106.536 44.7 44.797z" class="fill-d28f52"></path><path d="m47.122 441.61 29.962 30.028 91.562-91.76-29.956-30.034-91.568 91.767Zm29.962 55.25c-2.765 0-5.42-1.107-7.372-3.064l-44.7-44.797c-4.072-4.08-4.072-10.696 0-14.777l106.306-106.529a10.395 10.395 0 0 1 14.738 0l44.7 44.797c4.072 4.08 4.072 10.69 0 14.77L84.45 493.796a10.42 10.42 0 0 1-7.366 3.064Z" fill="#8b0000" class="fill-2e2e30"></path><path d="M253.452 118.913c-24.764 24.819-64.92 24.819-89.692 0-24.765-24.818-24.765-65.06 0-89.886 24.772-24.818 64.928-24.818 89.692 0 24.765 24.825 24.765 65.068 0 89.886" fill="#E9E9E9" class="fill-e9e9e9"></path><path d="M253.452 29.03c-2.05-2.055-4.238-3.873-6.483-5.593 8.637 22.695 3.885 49.338-14.362 67.624-22.715 22.764-58.348 24.581-83.21 5.585 3.086 8.112 7.845 15.73 14.363 22.27 24.772 24.818 64.928 24.818 89.692 0 24.765-24.826 24.765-65.069 0-89.887" fill="#8b0000" opacity=".3" class="fill-010202"></path><path d="M208.608 20.884c-13.57 0-27.14 5.174-37.48 15.529-20.658 20.71-20.658 54.406 0 75.116 10.013 10.028 23.326 15.55 37.48 15.55 14.155 0 27.468-5.522 37.48-15.55 20.659-20.71 20.659-54.407 0-75.116-10.339-10.355-23.91-15.53-37.48-15.53m0 127.052c-18.914 0-37.82-7.208-52.218-21.636-28.788-28.857-28.788-75.799 0-104.656s75.649-28.857 104.437 0c28.788 28.857 28.788 75.799 0 104.656-14.398 14.428-33.305 21.636-52.219 21.636" fill="#8b0000" class="fill-2e2e30"></path></g></svg>