<svg viewBox="0 0 512 512" xml:space="preserve" xmlns="http://www.w3.org/2000/svg"><path d="M0 0h512v512H0z" fill="#ffffff" fill-opacity="1" fill-rule="nonzero" stroke="none" class="fill-d0422a"></path><path d="M387.107 56H278.862c-28.369 0-64.098 4.187-94.035 28.844-22.623 19.44-33.627 46.187-33.627 70.347 0 40.938 31.529 82.427 87.222 82.427 5.254 0 11.01-.534 16.831-1.045-2.63 6.28-5.284 11.53-5.284 20.467 0 16.28 8.413 26.236 15.764 35.689-23.617 1.564-67.769 4.187-100.364 24.124-31 18.41-40.476 45.156-40.476 64.063C124.884 419.76 161.68 456 237.88 456c90.382 0 138.213-49.867 138.213-99.244 0-36.187-21.022-54.063-44.142-73.485l-18.924-14.689c-5.756-4.733-13.636-11.018-13.636-22.578 0-11.542 7.88-18.906 14.698-25.728 22.058-17.316 44.142-35.69 44.142-74.534 0-39.906-25.244-60.906-37.315-70.875h32.595L387.107 56zm-46.205 321.24c0 32.547-26.813 56.68-77.267 56.68-56.213 0-92.484-26.773-92.484-64.022 0-37.298 33.636-49.858 45.182-54.062 22.085-7.36 50.454-8.405 55.174-8.405 5.262 0 7.889 0 12.11.516 39.947 28.342 57.285 42.529 57.285 69.293zm-42.049-169.022c-8.413 8.382-22.613 14.689-35.755 14.689-45.174 0-65.658-58.28-65.658-93.436 0-13.653 2.631-27.813 11.547-38.844 8.413-10.498 23.115-17.33 36.786-17.33 43.605 0 66.223 58.796 66.223 96.579 0 9.466-1.072 26.248-13.143 38.342z" fill="#8b0000" fill-opacity="1" class="fill-ffffff"></path></svg>