<svg viewBox="0 0 1024 1024" xml:space="preserve" xmlns="http://www.w3.org/2000/svg"><path fill="#ffffff" d="M0 0h1024v1024H0z" class="fill-b6d161"></path><path fill="#8b0000" d="m564.1 808.96-42.14-99.27 18.85-8 29.58 69.67 43.54-48.38 65.06 2.29-24.26-57.17 18.85-8 36.82 86.77-87.64-3.09-58.66 65.18zM461.145 808.9l-59.785-64.14-87.57 4.62 39.54-97.9 18.99 7.66-27.5 68.1 65.005-3.42 44.38 47.6 29.325-72.58 18.99 7.66-41.375 102.4z" class="fill-ffffff"></path><path d="M511.995 727.87c-10.955 0-18.965-8.34-26.035-15.7-3.135-3.26-8.385-8.73-10.66-9.09h-.03c-3.23 0-8.905 3.04-13.465 5.48-7.185 3.84-14.615 7.82-22.52 7.82-2.275 0-4.475-.34-6.54-1.01-10.345-3.37-15.36-13.73-19.78-22.88-1.985-4.11-5.31-10.99-7.435-12.08-.11-.05-.91-.41-3.065-.41-3.135 0-7.105.71-11.31 1.46-4.875.86-9.915 1.76-14.83 1.76-6.125 0-11.045-1.41-15.04-4.32-8.735-6.36-10.305-17.72-11.685-27.74-.63-4.56-1.68-12.18-3.4-13.9-1.725-1.72-9.345-2.77-13.9-3.4-10.02-1.38-21.38-2.94-27.74-11.67-6.34-8.7-4.335-19.97-2.57-29.91.865-4.84 2.165-12.15 1.04-14.36-1.075-2.1-7.965-5.44-12.075-7.42-9.15-4.43-19.525-9.45-22.87-19.8-3.315-10.16 2.065-20.22 6.81-29.08 2.335-4.36 5.865-10.96 5.47-13.48-.355-2.26-5.825-7.52-9.09-10.66-7.355-7.07-15.69-15.08-15.69-26.03 0-10.94 8.335-18.95 15.685-26.01 3.27-3.15 8.74-8.4 9.1-10.7.39-2.48-3.14-9.07-5.475-13.43-4.75-8.87-10.135-18.93-6.805-29.11 3.33-10.32 13.695-15.34 22.84-19.76 4.115-2 11-5.34 12.09-7.46 1.115-2.2-.185-9.52-1.045-14.36-1.765-9.93-3.77-21.19 2.56-29.88 6.365-8.74 17.715-10.3 27.725-11.68 4.855-.67 12.19-1.68 13.915-3.42 1.73-1.72 2.78-9.34 3.41-13.89 1.38-10.03 2.945-21.39 11.685-27.74 4-2.91 8.925-4.33 15.055-4.33 4.915 0 9.955.9 14.825 1.76 4.2.75 8.165 1.46 11.3 1.46 2.15 0 2.945-.35 3.085-.42 2.1-1.08 5.43-7.96 7.42-12.07 4.42-9.15 9.435-19.51 19.78-22.87 2.065-.67 4.27-1.01 6.55-1.01 7.91 0 15.34 3.97 22.52 7.82 4.575 2.45 10.27 5.49 13.2 5.49 2.565-.38 7.815-5.84 10.95-9.1 7.07-7.36 15.085-15.7 26.04-15.7 10.955 0 18.965 8.34 26.035 15.69 3.14 3.27 8.395 8.73 10.68 9.09h.025c3.21 0 8.875-3.02 13.435-5.46 7.185-3.85 14.615-7.82 22.525-7.82 2.29 0 4.5.34 6.575 1.02 10.336 3.34 15.35 13.72 19.775 22.86 1.985 4.11 5.31 10.98 7.425 12.06.125.07.925.42 3.085.42 3.135 0 7.1-.7 11.3-1.45 4.87-.87 9.905-1.76 14.815-1.76 6.135 0 11.064 1.42 15.064 4.33 8.726 6.36 10.296 17.71 11.676 27.73.67 4.85 1.685 12.17 3.405 13.9 1.73 1.73 9.355 2.78 13.91 3.41 10.015 1.38 21.37 2.94 27.714 11.68 6.336 8.68 4.341 19.95 2.576 29.89-.86 4.84-2.156 12.15-1.03 14.37 1.085 2.11 7.965 5.44 12.075 7.43 9.14 4.43 19.5 9.44 22.855 19.78 3.305 10.17-2.07 20.22-6.815 29.09-2.335 4.36-5.866 10.95-5.47 13.46.36 2.28 5.83 7.53 9.1 10.68 7.35 7.06 15.685 15.07 15.685 26.01 0 10.96-8.34 18.97-15.695 26.05-3.265 3.13-8.73 8.38-9.09 10.66-.396 2.5 3.135 9.1 5.476 13.47 4.739 8.86 10.114 18.91 6.809 29.09-3.354 10.34-13.72 15.35-22.865 19.78-4.11 1.98-10.99 5.31-12.075 7.44-1.13 2.21.17 9.53 1.03 14.38 1.76 9.92 3.755 21.18-2.57 29.88-6.36 8.74-17.72 10.3-27.75 11.68-4.55.62-12.165 1.68-13.88 3.39-1.73 1.73-2.785 9.36-3.415 13.91-1.38 10.02-2.945 21.36-11.66 27.72-4.015 2.92-8.93 4.33-15.05 4.33-4.92 0-9.965-.9-14.845-1.77-4.2-.75-8.17-1.46-11.305-1.46-2.145 0-2.935.35-3.075.42-2.105 1.08-5.44 7.96-7.43 12.08-4.425 9.14-9.44 19.5-19.785 22.87a21.171 21.171 0 0 1-6.545 1.01c-7.9 0-15.325-3.98-22.505-7.82-4.575-2.45-10.265-5.5-13.185-5.5-2.6.38-7.86 5.86-11 9.13-7.065 7.35-15.065 15.68-26.01 15.68zm-37-45.29c1.185 0 2.35.1 3.495.28 9.08 1.42 15.77 8.39 22.24 15.12 2.93 3.06 9.035 9.41 11.265 9.41 2.22 0 8.315-6.34 11.24-9.39 6.48-6.74 13.175-13.72 22.28-15.14 8.88-1.38 17.995 3.18 26.34 7.64 4.49 2.41 10.075 5.4 12.84 5.4 2.285-.74 6.074-8.56 7.895-12.32 4.09-8.44 8.315-17.18 16.545-21.4 7.125-3.62 17.625-2.6 27.295-.88 4.185.74 8.14 1.45 11.25 1.45 2.32 0 3-.41 3.01-.41 1.675-1.37 2.805-9.56 3.415-13.96 1.23-8.91 2.625-19.01 9.23-25.6 6.57-6.58 16.66-7.96 25.555-9.19 4.405-.61 12.6-1.73 13.99-3.45 1.155-1.86-.274-9.92-1.04-14.25-1.575-8.87-3.36-18.93.895-27.26 4.21-8.25 12.945-12.49 21.395-16.57 3.755-1.82 11.57-5.6 12.306-7.67.48-2.13-3.341-9.27-5.391-13.1-4.265-7.97-9.105-17.01-7.644-26.31 1.439-9.1 8.399-15.79 15.13-22.26 3.05-2.93 9.405-9.04 9.405-11.27 0-2.22-6.346-8.32-9.396-11.25-6.735-6.48-13.7-13.16-15.14-22.24-1.46-9.32 3.376-18.36 7.645-26.33 2.05-3.83 5.87-10.97 5.385-13.11-.735-2.06-8.54-5.84-12.295-7.66-8.445-4.08-17.175-8.31-21.385-16.54-4.255-8.35-2.474-18.4-.9-27.27.77-4.33 2.2-12.39 1.025-14.27-1.4-1.7-9.564-2.83-13.95-3.44-8.905-1.22-19.005-2.62-25.595-9.22-6.585-6.58-7.974-16.67-9.205-25.57-.61-4.4-1.74-12.59-3.45-13.97-.005 0-.69-.41-3.005-.41-3.105 0-7.055.7-11.234 1.45-9.666 1.72-20.196 2.72-27.28-.9-8.246-4.22-12.466-12.94-16.55-21.38-1.816-3.76-5.601-11.58-7.67-12.31h-.02c-3.026 0-8.6 2.99-13.086 5.39-8.34 4.45-17.42 9.04-26.31 7.64-9.095-1.44-15.785-8.4-22.255-15.14-2.935-3.05-9.04-9.4-11.27-9.4-2.23 0-8.34 6.36-11.27 9.4-6.47 6.74-13.155 13.7-22.225 15.14-9.07 1.4-18.025-3.19-26.355-7.66-4.495-2.4-10.085-5.39-12.86-5.39-2.3.75-6.08 8.57-7.895 12.32-4.085 8.44-8.305 17.17-16.54 21.39-7.115 3.62-17.62 2.6-27.28.89-4.185-.75-8.135-1.45-11.245-1.45-2.325 0-3.01.41-3.015.42-1.7 1.38-2.83 9.56-3.44 13.96-1.225 8.91-2.615 19-9.21 25.58-6.58 6.6-16.685 8-25.6 9.22-4.4.62-12.585 1.74-13.975 3.46-1.15 1.85.285 9.91 1.055 14.24 1.575 8.87 3.365 18.92-.88 27.25-4.23 8.25-12.96 12.49-21.4 16.57-3.745 1.82-11.545 5.6-12.29 7.67-.485 2.16 3.33 9.29 5.38 13.11 4.265 7.97 9.105 17 7.65 26.29-1.44 9.11-8.404 15.79-15.14 22.27-3.05 2.93-9.395 9.03-9.395 11.25 0 2.23 6.35 8.33 9.4 11.27 6.735 6.46 13.695 13.16 15.135 22.24 1.455 9.32-3.38 18.35-7.645 26.32-2.055 3.84-5.875 10.97-5.39 13.12.75 2.06 8.555 5.84 12.305 7.66 8.445 4.08 17.18 8.3 21.4 16.54 4.25 8.36 2.465 18.4.886 27.28-.771 4.32-2.206 12.38-1.04 14.26 1.38 1.7 9.574 2.83 13.979 3.44 8.9 1.22 18.99 2.61 25.58 9.2 6.59 6.58 7.98 16.68 9.21 25.58.61 4.4 1.74 12.6 3.455 13.99.01 0 .705.39 2.985.39 3.105 0 7.06-.7 11.245-1.45 9.685-1.71 20.195-2.73 27.285.89 8.25 4.23 12.47 12.96 16.55 21.4 1.815 3.76 5.595 11.58 7.67 12.32h.01c2.98 0 8.57-3 13.06-5.4 7.275-3.89 14.795-7.92 22.85-7.92z" fill="#8b0000" class="fill-ffffff"></path><path d="M511.995 574.64c-52.13 0-94.54-45.7-94.54-101.87s42.41-101.87 94.54-101.87c52.135 0 94.55 45.7 94.55 101.87s-42.415 101.87-94.55 101.87zm0-183.26c-40.835 0-74.06 36.51-74.06 81.39s33.225 81.39 74.06 81.39c40.84 0 74.07-36.51 74.07-81.39s-33.23-81.39-74.07-81.39z" fill="#8b0000" class="fill-ffffff"></path><path d="M585.115 575.7c-2.62 0-5.24-1-7.24-3l-53.57-53.56c-4-4-4-10.48 0-14.48s10.48-4 14.48 0l53.57 53.56c4 4 4 10.48 0 14.48-2 2-4.62 3-7.24 3z" fill="#8b0000" class="fill-ffffff"></path></svg>