<svg viewBox="0 0 60 60" xmlns="http://www.w3.org/2000/svg"><path d="M51.924 44.567a7.326 7.326 0 1 0 7.326 7.327 7.335 7.335 0 0 0-7.326-7.327Zm-2.134 6.506-1.778.179a.656.656 0 0 1-.076 0 .75.75 0 0 1-.075-1.5l1.779-.179a.737.737 0 0 1 .821.671.75.75 0 0 1-.671.829Zm2 5.3a1.095 1.095 0 1 1 1.095-1.095 1.1 1.1 0 0 1-1.096 1.092Zm4.569-5.789a.75.75 0 0 1-.745.675.634.634 0 0 1-.076 0l-1.779-.179a.75.75 0 1 1 .151-1.492l1.778.179a.75.75 0 0 1 .67.814Z" fill="#ffffff" class="fill-e82e5f"></path><path d="M49.045 24.089a1 1 0 0 0-.374-1.292l-1.507-.927a1 1 0 0 0-1.265.181l-4.718 5.21a1 1 0 0 1-.465.291l-2.052.588a1 1 0 0 1-1.265-.815l-.482-3.268a1 1 0 0 0-.54-.747l-3.894-1.959a.983.983 0 0 0-.387-.105l-22.075-1.364A1 1 0 0 0 9 20.609L6.679 28.83a1 1 0 0 0 .034.642l3.143 7.886a1 1 0 0 0 .6.574l9.949 3.468a1 1 0 0 1 .506.393l2.27 3.438a1 1 0 0 0 .595.42l1.735.428a1 1 0 0 0 1.2-.683l.365-1.21a1 1 0 0 1 .578-.637l2.231-.913a.994.994 0 0 1 .274-.069l3.491-.368 4.582-.482a1 1 0 0 1 .964.484l1.94 3.265a1 1 0 0 0 1.369.35l.465-.275a1 1 0 0 0 .46-1.105l-1.187-4.7a1 1 0 0 1 .177-.854l2.9-3.774a1 1 0 0 0 .15-.942l-.427-1.21a1 1 0 0 1 .045-.773l1.145-2.335Z" fill="none" stroke="#8b0000" stroke-linecap="round" stroke-linejoin="round" stroke-width="1.5px" class="stroke-1c4db8"></path><path d="M20.723 18.266A27.276 27.276 0 0 0 24.3 26.29c.522.808 1.821.057 1.3-.757a26 26 0 0 1-3.428-7.666.75.75 0 0 0-1.446.4Z" fill="#8b0000" class="fill-1c4db8"></path><path d="M23.629 27.53a.5.5 0 0 1-.09-.913l2.821-1.568a.5.5 0 0 1 .728.559l-.574 2.292a.5.5 0 0 1-.638.354ZM51.137 42.238a24.2 24.2 0 0 0-11.521-7.509c-.919-.3-1.313 1.145-.4 1.446A22.78 22.78 0 0 1 50.077 43.3c.6.755 1.655-.312 1.06-1.061Z" fill="#8b0000" class="fill-1c4db8"></path><path d="M39.427 33.363a.5.5 0 0 1 .643.654l-1.209 2.992a.5.5 0 0 1-.917.023l-.992-2.142a.5.5 0 0 1 .274-.676ZM16.4 43.935a27.781 27.781 0 0 0 4.753-6.289c.472-.843-.823-1.6-1.295-.757a26.324 26.324 0 0 1-4.519 5.985c-.691.677.37 1.737 1.061 1.061Z" fill="#8b0000" class="fill-1c4db8"></path><path d="M22.554 37.68a.5.5 0 0 1-.765.506l-2.7-1.763a.5.5 0 0 1 .155-.905l2.292-.56a.5.5 0 0 1 .611.4Z" fill="#8b0000" class="fill-1c4db8"></path><path d="M20.87 1.531a7.326 7.326 0 1 0 7.33 7.325 7.334 7.334 0 0 0-7.33-7.325ZM16.6 7.319a.738.738 0 0 1-.327-1l.014-.026a1.894 1.894 0 0 1 1.654-.986 1.827 1.827 0 0 1 1.623 1.028.75.75 0 0 1-1.347.665.336.336 0 0 0-.3-.188.367.367 0 0 0-.3.18.761.761 0 0 1-1.017.327Zm4.278 6.029a4.339 4.339 0 0 1-2.11-.5 2.12 2.12 0 0 1-1.17-1.866.75.75 0 0 1 1.5 0c0 .543.905.869 1.78.869a2.882 2.882 0 0 0 1.368-.307c.411-.234.411-.473.411-.562a.75.75 0 0 1 1.5 0c.001 1.391-1.347 2.366-3.278 2.366Zm4.172-6.006a.751.751 0 0 1-1-.344.338.338 0 0 0-.3-.188.365.365 0 0 0-.3.18.762.762 0 0 1-1.018.329.737.737 0 0 1-.326-1l.014-.026a1.893 1.893 0 0 1 1.653-.986A1.827 1.827 0 0 1 25.4 6.338a.752.752 0 0 1-.349 1.004ZM8.076 41.859a7.327 7.327 0 1 0 7.324 7.327 7.335 7.335 0 0 0-7.324-7.327ZM3.66 46.914a.75.75 0 1 1 1.348-.658.28.28 0 0 0 .263.164.294.294 0 0 0 .261-.156.76.76 0 0 1 1.013-.333.737.737 0 0 1 .336.989l-.013.026a1.789 1.789 0 0 1-1.6.974h-.022a1.784 1.784 0 0 1-1.586-1.006ZM8.076 54a2.8 2.8 0 0 1-2.8-2.8h5.604A2.8 2.8 0 0 1 8.076 54Zm4.413-7.076-.013.026a1.792 1.792 0 0 1-1.6.974h-.027a1.786 1.786 0 0 1-1.586-1.005.75.75 0 1 1 1.347-.66.289.289 0 0 0 .264.165.3.3 0 0 0 .262-.157.759.759 0 0 1 1.012-.332.736.736 0 0 1 .341.985Z" fill="#ffffff" class="fill-e82e5f"></path></svg>