<svg viewBox="0 0 512 512" xml:space="preserve" xmlns="http://www.w3.org/2000/svg" fill-rule="evenodd" clip-rule="evenodd" stroke-linejoin="round" stroke-miterlimit="2"><g display="inline"><path d="M0-134.326a16.653 16.653 0 0 1-4.846-11.692c0-4.416 1.725-8.576 4.838-11.695 3.137-3.131 7.296-4.855 11.712-4.855h80.88c4.417 0 8.576 1.724 11.695 4.838a16.472 16.472 0 0 1 4.845 11.712c0 4.358-1.763 8.62-4.836 11.693a16.446 16.446 0 0 1-11.704 4.847h-80.88A16.446 16.446 0 0 1 0-134.326M339.631 28.242H235.324V-76.056c50.479 13.716 90.589 53.823 104.307 104.298M125.5-113.111c5.04-5.039 8.818-11.213 11.104-17.907h104.01v25.309a179.435 179.435 0 0 0-18.127-3.602 15.001 15.001 0 0 0-17.163 14.842V43.242c0 8.285 6.716 15 15 15h137.72a15.002 15.002 0 0 0 14.843-17.164c-5.553-38.093-22.953-72.695-50.323-100.064-15.278-15.279-32.813-27.447-51.95-36.187v-50.845c0-8.285-6.716-15-15-15h-118.96c-2.262-6.669-6.033-12.788-11.162-17.925-8.801-8.786-20.487-13.625-32.908-13.625h-80.88c-12.42 0-24.106 4.839-32.925 13.642-8.786 8.801-13.625 20.488-13.625 32.908 0 12.25 4.97 24.244 13.634 32.906C-12.42-104.32-.73-99.478 11.704-99.478h80.88c12.436 0 24.125-4.842 32.916-13.633" transform="translate(52.68 192.57)" fill-rule="nonzero" fill="#8b0000" class="fill-000000"></path><path d="M0 325.306c-3.069 3.074-7.328 4.838-11.685 4.838h-80.889a16.41 16.41 0 0 1-11.703-4.856 16.396 16.396 0 0 1-4.837-11.684 16.44 16.44 0 0 1 4.845-11.703 16.436 16.436 0 0 1 11.695-4.847h80.889c4.351 0 8.614 1.767 11.694 4.847a16.445 16.445 0 0 1 4.846 11.703A16.41 16.41 0 0 1 0 325.306m-349.305-204.762c0-56.384 38.017-105.766 90.87-121.312v43.715c-12.818 5.907-24.182 15.013-32.708 26.346-11.195 14.882-17.112 32.604-17.112 51.251 0 47.068 38.288 85.36 85.351 85.36 18.649 0 36.373-5.919 51.257-17.117 11.33-8.524 20.436-19.887 26.345-32.703h43.72c-15.546 52.849-64.932 90.86-121.322 90.86-69.698 0-126.401-56.702-126.401-126.4M21.222 280.688c-8.664-8.664-20.659-13.634-32.907-13.634h-80.889c-12.429 0-24.115 4.842-32.907 13.634-5.127 5.127-8.9 11.244-11.164 17.916h-81.969v-21.726a156.276 156.276 0 0 0 98.445-38.436c28.186-24.581 46.663-58.389 52.027-95.194a14.999 14.999 0 0 0-14.842-17.164h-72.611a15 15 0 0 0-14.345 10.619c-7.048 23.082-28.828 39.201-52.964 39.201-30.521 0-55.351-24.834-55.351-55.36 0-24.14 16.118-45.916 39.195-52.953a15 15 0 0 0 10.625-14.347v-72.61a15.002 15.002 0 0 0-17.164-14.843c-36.804 5.365-70.614 23.841-95.198 52.026a156.251 156.251 0 0 0-38.508 102.727c0 77.484 56.642 141.975 130.691 154.275v38.785c0 8.284 6.716 15 15 15h96.968a46.215 46.215 0 0 0 11.156 17.897c8.783 8.798 20.472 13.643 32.916 13.643h80.889c12.263 0 24.26-4.973 32.898-13.625 8.798-8.783 13.642-20.473 13.642-32.915 0-12.435-4.841-24.124-13.633-32.916" transform="translate(459.31 151.86)" fill-rule="nonzero" fill="#8b0000" class="fill-000000"></path></g></svg>